<?xml version="1.0" encoding="UTF-8"?>
<!-- Created with Inkscape (http://www.inkscape.org/) -->
<svg width="512" height="512" version="1.1" viewBox="0 0 512 512" xml:space="preserve" xmlns="http://www.w3.org/2000/svg"><g transform="translate(2915.1 -599.64)"><g fill-rule="evenodd"><path d="m-2561.5 950.35c29.79 9.1222 53.498 51.406 53.498 102.49h-53.498z" fill="#f0d0b4"/><path d="m-2756.7 950.35v102.49h-53.498c2e-4 -51.086 23.709-93.37 53.498-102.49z" fill="#f0d0b4"/><path d="m-2716.7 943.4a59.093 59.093 0 0 0 57.564 45.74 59.093 59.093 0 0 0 57.562-45.74c8.3203 3.3405 17.816 5.1285 28.049 5.1289v104.31h-171.22v-104.31c10.232-3e-4 19.727-1.7892 28.047-5.1289z" fill="#ffd073"/><path d="m-2632.8 910.71a85 114 0 0 1-26.307 5.5977 85 114 0 0 1-26.305-5.5957c-3.4324 11.218-10.528 20.37-20.184 26.857a47.093 47.093 0 0 0 46.488 39.564 47.093 47.093 0 0 0 46.486-39.568c-9.6544-6.4881-16.748-15.638-20.18-26.855z" fill="#f0d0b4"/><path d="m-2574.2 808.2a85 114 0 0 1-46.57 95.869c6.1568 18.841 23.874 32.453 44.772 32.453 49.892 0 80.025 54.654 80.025 116.32 26.008-5e-4 47.091-21.084 47.092-47.092 0-12.114-10.595-20.368-17.465-30.123-16.834-23.392-7.2546-71.364-9.6543-99.535-0.01-17.302-9.497-33.209-24.723-41.428-8.7853-5.0722-18.374-11.51-26.908-19.365-16.184-0.52466-31.873-2.9713-46.568-7.0957z" fill="#c79967"/><path d="m-2744 808.19c-14.694 4.1272-30.383 6.5756-46.566 7.1035-8.5347 7.8563-18.124 14.295-26.91 19.367-15.226 8.219-24.723 24.125-24.723 41.428-2.3997 28.171 7.1797 76.143-9.6543 99.535-6.8697 9.7552-17.465 18.009-17.465 30.123 5e-4 26.008 21.084 47.091 47.092 47.092 2e-4 -61.663 30.134-116.32 80.025-116.32 20.897-5e-4 38.615-13.613 44.772-32.453a85 114 0 0 1-46.57-95.879z" fill="#c79967"/><path d="m-2659.1 747.78c14.53 25.326 40.83 45.167 73.002 56.635a73 97.906 0 0 1-72.982 95.797 73 97.906 0 0 1-72.982-95.811c32.156-11.47 58.438-31.305 72.963-56.621z" fill="#f0d0b4"/><path d="m-2659.1 658.45c-58.645 0-106.18 47.541-106.18 106.19 0 16.173-6.7033 29.892-16.252 41.271 73.274-5.9076 122.44-53.078 122.44-101.5 0.3777 47.872 48.746 95.458 122.42 101.48-9.5394-11.375-16.234-25.088-16.234-41.252 0-58.645-47.541-106.19-106.19-106.19z" fill="#c79967"/><path d="m-2659.1 646.45c-65.272 0-118.18 52.913-118.18 118.19 0 26.451-21.914 45.629-45.881 59.467-19.106 10.315-31.02 30.277-31.02 51.99-0.064 27.305 3.8926 73.185-5.3183 89.139-3.4023 5.6092-7.0113 9.7993-11.051 14.971-8.3286 10.662-10.754 17.22-10.754 25.549 7e-4 32.636 26.458 59.092 59.094 59.092h326.23c32.636 4e-4 59.093-26.456 59.094-59.092 0-8.3288-2.4253-14.887-10.754-25.549-4.0395-5.1714-7.6485-9.3614-11.051-14.971-9.2109-15.954-5.2545-61.834-5.3183-89.139 0-21.713-11.912-41.675-31.018-51.99-23.967-13.838-45.881-33.016-45.881-59.467 0-65.272-52.914-118.19-118.19-118.19zm0 12c58.645 0 106.19 47.541 106.19 106.19 0 16.164 6.6949 29.877 16.234 41.252-73.674-6.0248-122.04-53.61-122.42-101.48 0 48.424-49.162 95.594-122.44 101.5 9.5487-11.379 16.252-25.098 16.252-41.271 0-58.645 47.539-106.19 106.18-106.19zm-0.02 89.336c14.531 25.326 40.83 45.167 73.002 56.635-0.8552 53.237-33.279 95.796-72.982 95.797-39.708-6.3e-4 -72.133-42.568-72.982-95.811 32.156-11.47 58.438-31.305 72.963-56.621zm-84.867 60.408c1.5735 40.851 19.345 77.44 46.57 95.879-6.1568 18.841-23.874 32.453-44.772 32.453-49.892 0-80.025 54.653-80.025 116.32-26.008-8e-4 -47.091-21.084-47.092-47.092 0-12.114 10.595-20.368 17.465-30.123 16.834-23.392 7.2546-71.364 9.6543-99.535 0-17.302 9.4971-33.209 24.723-41.428 8.7859-5.0725 18.376-11.511 26.91-19.367 16.184-0.52793 31.872-2.9763 46.566-7.1035zm169.77 0.01c14.696 4.1244 30.384 6.571 46.568 7.0957 8.5339 7.8556 18.123 14.293 26.908 19.365 15.226 8.219 24.718 24.125 24.723 41.428 2.3997 28.171-7.1797 76.143 9.6543 99.535 6.8696 9.7552 17.465 18.009 17.465 30.123-5e-4 26.008-21.084 47.091-47.092 47.092-2e-4 -61.663-30.134-116.32-80.025-116.32-20.897-4.3e-4 -38.615-13.613-44.772-32.453 27.223-18.438 44.994-55.022 46.57-95.869zm-58.58 102.51c3.4319 11.217 10.525 20.367 20.18 26.855-0.947 5.8527-2.9906 11.474-6.0235 16.568l0.5488-8.8242-9.6093 10.73c-1.3019 1.4538-2.5126 2.9807-3.7481 4.4883l1.3672-5.1035-10.455 6.0371c-3.8182 2.2045-7.3176 5.1429-10.545 8.3555-0.8305-6.6153-3.5898-11.691-3.5898-11.691l-4.4297-8.4766-4.4317 8.4746s-2.7602 5.0771-3.5918 11.691c-3.2267-3.2118-6.7274-6.1494-10.545-8.3535l-10.453-6.0371 1.3672 5.1035c-1.2356-1.5077-2.4481-3.0344-3.75-4.4883l-9.6094-10.73 0.5488 8.8262c-3.0333-5.0936-5.0776-10.714-6.0254-16.566 9.6561-6.4878 16.751-15.639 20.184-26.857 8.4946 3.7075 17.372 5.5959 26.305 5.5957 8.9338-1.8e-4 17.812-1.8893 26.307-5.5977zm-142.4 50.119 5.8554 4.5c3.7704 2.8974 8.0338 5.489 12.627 7.4141v1.3574l-9.4512 3.1777 9.4512 4.0547v71.504h-53.498c1e-4 -39.916 14.476-74.459 35.016-92.008zm232.19 0c20.54 17.548 35.014 52.091 35.014 92.008h-53.498v-71.504l9.4511-4.0547-9.4511-3.1777v-1.3574c4.5923-1.925 8.8571-4.5171 12.627-7.4141zm-201.71 25.518c2.1356 0.8028 4.2572 1.5061 6.4004 2.0489l-6.4004 4.123zm171.22 0v6.1719l-6.4004-4.123c2.1438-0.5429 4.2641-1.2458 6.4004-2.0489zm-171.22 8.9239 8.0996 2.041c6.2267 1.5692 12.137 3.0189 18.076 3.3164l-8.5078 7.8691 11.924 0.5606c7.0093 0.3291 13.264 0.7525 19.332-0.096l-6.2871 7.834h10.424c9.1288 0 16.116-1.1966 21.928-4.5039 0.2633-0.1499 0.4798-0.3524 0.7363-0.5098-0.1246 10.586 5.541 19.621 5.541 19.621l4.3457 7.6347 4.3457-7.6386s5.665-9.0344 5.5391-19.621c0.2572 0.1578 0.4742 0.3634 0.7383 0.5137 5.8125 3.3081 12.798 4.5039 21.928 4.5039h10.424l-6.2851-7.834c6.0676 0.8476 12.321 0.4242 19.33 0.096l11.924-0.5606-8.5059-7.8691c5.9395-0.2975 11.85-1.7472 18.076-3.3164l8.0977-2.041v57.566h-171.22z" fill="#402921" stroke-width=".89626"/></g><path d="m-2600.9 943.63c-7.2355 16.549-6.4739 18.859-4.9765 32.658l-11.984 6.2324c7.4335-8.1235 10.559-18.801 6.0665-29.416-9.1042 15.769-9.6644 14.632-10.559 31.17l-14.043 4.1387c8.756-6.6354 11.266-9.7834 12.463-29.037-7.8944 8.8161-14.37 18.077-17.262 29.691 0 0-9.1462 1.0928-13.717 1.375 11.906-5.3797 14.319-14.95 16.918-24.65-8.3642 4.8292-16.129 13.703-20.002 22.092 0.2439-3.6351 0.7925-7.0398 1.4922-9.2129 2.6575-8.2532-2.5566-18.228-2.5566-18.228s-5.2159 9.9753-2.5586 18.228c0.6994 2.1721 1.248 5.5757 1.4922 9.209-3.874-8.387-11.637-17.26-20-22.088 2.5991 9.7001 5.0123 19.271 16.918 24.65-4.5707-0.2822-13.717-1.375-13.717-1.375-2.8921-11.614-9.3675-20.875-17.262-29.691 1.1971 19.254 3.7068 22.402 12.463 29.037l-14.043-4.1387c-0.8942-16.538-1.4544-15.401-10.559-31.17-4.4922 10.615-1.3671 21.292 6.0664 29.416l-11.984-6.2324c1.4973-13.799 2.2587-16.108-4.9766-32.656-0.2905 0.1133-0.5836 0.2244-0.8769 0.334-4.8809 12.68-4.275 17.679 0.5976 29.518l-10.268-8.0489c2.0565-6.0786 3.4877-12.123 2.9394-19.352-2.9385 0.762-5.9873 1.3513-9.1308 1.7597-0.575 4.8876 0.2324 9.8452 3.1386 14.879l-9.7949-10.57c0.7437-1.2882 1.402-2.5668 1.9805-3.8398-1.9803 0.1406-3.9947 0.2128-6.0371 0.2129-6.6214 2e-4 -13.071 1.6502-19.18 4.7148 5.8211 2.5138 12.403 3.038 21.518 0.5957l10.25 10.787c-5.2473-3.1659-16.147-9.3682-34.168-3.2558 10.642 8.1781 25.534 13.624 37.906 6.3496l10.969 8.375c-5.6106-1.953-19.382-3.4069-34.74 1.7559 14.841 6.3649 25.252 11.047 38.473 0.3789l12.857 6.5625s-17.381-3.3898-34.564 7.6757c15.522 3.9117 27.455 6.6599 39.131-6.0136 11.237 3.2082 12.9 3.7461 12.9 3.7461-6.6025 0.9092-22.37 5.3983-31.526 13.867 16.868 0.7919 27.71 2.0635 37.783-12.814 0 0 10.318 1.4697 13.215 1.6816-11.481 5.1006-19.281 8.2946-27.764 18.865 17.388 0 23.973-4.5351 31.553-17.166-0.1687 3.1412-0.6529 5.9721-1.5605 7.7871-6.1449 11.22 2.5586 26.514 2.5586 26.514s8.7015-15.294 2.5566-26.514c-0.9078-1.8157-1.392-4.6484-1.5605-7.791 7.5809 12.634 14.165 17.17 31.555 17.17-8.4829-10.571-16.283-13.765-27.764-18.865 2.8972-0.2119 13.215-1.6816 13.215-1.6816 10.073 14.878 20.915 13.606 37.783 12.814-9.1551-8.4689-24.923-12.958-31.525-13.867 0 0 1.6635-0.5379 12.9-3.7461 11.676 12.674 23.609 9.9253 39.131 6.0136-17.183-11.066-34.564-7.6757-34.564-7.6757l12.857-6.5625c13.221 10.668 23.632 5.986 38.473-0.3789-15.358-5.1628-29.13-3.7089-34.74-1.7559l10.969-8.375c12.373 7.2745 27.264 1.8285 37.906-6.3496-18.021-6.1124-28.921 0.09-34.168 3.2558l10.25-10.787c9.1151 2.4424 15.698 1.9182 21.52-0.5957-6.1091-3.0648-12.56-4.7146-19.182-4.7148-2.0429-1e-4 -4.0564-0.072-6.0371-0.2129 0.5785 1.273 1.2365 2.5512 1.9805 3.8398l-9.7949 10.57c2.9062-5.0339 3.7118-9.9913 3.1367-14.879-3.1437-0.4086-6.1923-0.9975-9.1309-1.7597-0.5483 7.2289 0.8848 13.272 2.9414 19.352l-10.268 8.0489c4.8728-11.839 5.4771-16.839 0.5957-29.52-0.293-0.1094-0.5847-0.2207-0.875-0.3339z" fill="#8fcb4d"/><path d="m-2705.7 816c-2.4842 0-4.4979 2.0138-4.498 4.498 0 2.4842 2.0138 4.498 4.498 4.498 6.2344 0 6.6605 3.5274 16.438 3.5274 6.595 0 11.779-2.5548 13.736-3.6758 0 0 0.01-7e-3 0.012-0.01 2.1514-1.2421 2.8886-3.9931 1.6465-6.1445-1.2421-2.1515-3.993-2.8886-6.1445-1.6465-2.8124 1.6236-6.0026 2.4785-9.25 2.4785-7.4289 0-7.4512-3.5254-16.438-3.5254zm93.188 0c-8.9863 0-9.0086 3.5254-16.438 3.5254-3.2474 0-6.4376-0.85491-9.25-2.4785-2.1515-1.2421-4.9024-0.50502-6.1445 1.6465-1.2421 2.1514-0.5049 4.9024 1.6465 6.1445v2e-3c0 3e-3 0.01 8e-3 0.01 8e-3 1.9577 1.121 7.1413 3.6758 13.736 3.6758 9.777 0 10.203-3.5274 16.438-3.5274 2.4842 0 4.4981-2.0138 4.4981-4.498-1e-4 -2.4842-2.0139-4.498-4.4981-4.498zm-70.664 41.234a4.4483 4.4483 0 0 0-3.1465 1.3027 4.4483 4.4483 0 0 0 0 6.291 4.4483 4.4483 0 0 0 0.016 0.0156c7.2174 7.2092 17 11.259 27.201 11.262 10.201-3e-3 19.984-4.0525 27.201-11.262a4.4483 4.4483 0 0 0 0.016-0.0156 4.4483 4.4483 0 0 0 0-6.291 4.4483 4.4483 0 0 0-3.1465-1.3027 4.4483 4.4483 0 0 0-3.1426 1.3027c-5.5503 5.55-13.077 8.6689-20.926 8.6719-7.8489-3e-3 -15.376-3.1218-20.926-8.6719a4.4483 4.4483 0 0 0-3.1426-1.3027z" fill="#402921" fill-rule="evenodd"/></g></svg>
