<?xml version="1.0" encoding="UTF-8"?>
<!-- Created with Inkscape (http://www.inkscape.org/) -->
<svg width="512" height="512" version="1.1" viewBox="0 0 512 512" xml:space="preserve" xmlns="http://www.w3.org/2000/svg"><g fill-rule="evenodd" stroke-width="1.1521"><path d="m368.46 380.1c34.32 10.509 61.634 59.224 61.634 118.08h-61.634z" fill="#f0d0b4"/><path d="m143.54 380.1v118.08h-61.634c2.3e-4 -58.855 27.314-107.57 61.634-118.08z" fill="#f0d0b4"/><path d="m189.68 372.09a68.08 68.08 0 0 0 66.319 52.696 68.08 68.08 0 0 0 66.317-52.696c9.5856 3.8485 20.526 5.9084 32.314 5.9089v120.18h-197.26v-120.18c11.788-3.4e-4 22.727-2.0613 32.312-5.9089z" fill="#ffd073"/><path d="m286.31 334.43a97.927 131.34 0 0 1-30.307 6.4489 97.927 131.34 0 0 1-30.305-6.4467c-3.9544 12.924-12.129 23.467-23.253 30.942a54.255 54.255 0 0 0 53.558 45.581 54.255 54.255 0 0 0 53.556-45.586c-11.123-7.4748-19.295-18.016-23.249-30.94z" fill="#f0d0b4"/><path d="m353.8 216.33a97.927 131.34 0 0 1-53.653 110.45c7.0931 21.706 27.505 37.388 51.58 37.389 57.479 0 92.195 62.965 92.196 134.01 29.963-5.8e-4 54.253-24.29 54.253-54.253 0-13.956-12.207-23.465-20.121-34.704-19.394-26.95-8.3579-82.217-11.123-114.67-0.0115-19.934-10.941-38.259-28.482-47.728-10.121-5.8436-21.169-13.26-31-22.31-18.645-0.60445-36.72-3.4232-53.65-8.1748z" fill="#c79967"/><path d="m158.2 216.32c-16.929 4.7549-35.003 7.5756-53.648 8.1838-9.8326 9.051-20.881 16.469-31.003 22.313-17.541 9.469-28.482 27.794-28.482 47.728-2.7646 32.456 8.2716 87.723-11.123 114.67-7.9144 11.239-20.121 20.748-20.121 34.704 5.76e-4 29.963 24.291 54.253 54.253 54.253 2.3e-4 -71.041 34.716-134.01 92.196-134.01 24.075-5.8e-4 44.487-15.683 51.58-37.389a97.927 131.34 0 0 1-53.653-110.46z" fill="#c79967"/><path d="m255.98 146.73c16.74 29.178 47.039 52.036 84.104 65.248a84.102 112.8 0 0 1-84.081 110.37 84.102 112.8 0 0 1-84.081-110.38c37.046-13.214 67.325-36.066 84.059-65.232z" fill="#f0d0b4"/><path d="m256 43.803c-67.563 0-122.33 54.771-122.33 122.33 0 18.633-7.7227 34.438-18.723 47.548 84.417-6.8061 141.06-61.15 141.06-116.94 0.43514 55.152 56.16 109.97 141.04 116.92-10.99-13.105-18.703-28.903-18.703-47.526 0-67.563-54.771-122.33-122.33-122.33z" fill="#c79967"/></g><path d="m0 0v443.91c-1.3944e-6 5e-3 0 0.0108 0 0.0156 1.1176e-7 5e-3 -1.2824e-6 0.0104 0 0.0156v68.063h512v-512zm256 43.803c67.563 0 122.33 54.773 122.33 122.34 0 18.622 7.713 34.42 18.703 47.525-84.878-6.9411-140.6-61.764-141.04-116.92 0 55.788-56.637 110.13-141.05 116.94 11.001-13.11 18.723-28.914 18.723-47.547 0-67.563 54.769-122.34 122.33-122.34zm-0.0234 102.92c16.74 29.178 47.038 52.034 84.104 65.246-0.9853 61.334-38.338 110.37-84.08 110.37-45.746-7.3e-4 -83.103-49.043-84.082-110.38 37.046-13.214 67.325-36.064 84.059-65.23zm-97.773 69.594c1.8128 47.063 22.287 89.217 53.652 110.46-7.0931 21.706-27.505 37.388-51.58 37.389-57.479 0-92.195 62.965-92.195 134.01-29.963-9.3e-4 -54.253-24.291-54.254-54.254 0-13.956 12.207-23.466 20.121-34.705 19.394-26.95 8.3584-82.216 11.123-114.67 0-19.934 10.941-38.26 28.482-47.729 10.122-5.8439 21.169-13.261 31.002-22.312 18.645-0.60822 36.72-3.4287 53.648-8.1836zm195.59 0.0117c16.931 4.7516 35.005 7.5713 53.65 8.1758 9.8317 9.0503 20.881 16.465 31.002 22.309 17.541 9.469 28.477 27.795 28.482 47.729 2.7646 32.456-8.273 87.722 11.121 114.67 7.9143 11.239 20.121 20.749 20.121 34.705-5.9e-4 29.963-24.291 54.253-54.254 54.254-2.3e-4 -71.041-34.716-134.01-92.195-134.01-24.075-5e-4 -44.487-15.683-51.58-37.389 31.363-21.242 51.837-63.39 53.652-110.45zm-67.488 118.1c3.9538 12.923 12.125 23.465 23.248 30.939-1.091 6.7428-3.4453 13.219-6.9395 19.088l0.63282-10.166-11.07 12.363c-1.4999 1.6749-2.895 3.433-4.3184 5.1699l1.5742-5.8789-12.045 6.9551c-4.3989 2.5398-8.4303 5.9238-12.148 9.625-0.95681-7.6214-4.1348-13.469-4.1348-13.469l-5.1035-9.7656-5.1055 9.7637s-3.1806 5.8486-4.1387 13.469c-3.7174-3.7002-7.7504-7.0838-12.148-9.623l-12.043-6.9551 1.5762 5.8789c-1.4235-1.737-2.8204-3.4949-4.3203-5.1699l-11.072-12.363 0.63281 10.168c-3.4946-5.8683-5.8495-12.342-6.9414-19.084 11.125-7.4745 19.3-18.019 23.254-30.943 9.7864 4.2713 20.013 6.4475 30.305 6.4473 10.292-2e-4 20.52-2.1768 30.307-6.4492zm-164.06 57.742 6.7461 5.1836c4.3438 3.338 9.2552 6.3232 14.547 8.541v1.5644l-10.889 3.6602 10.889 4.6719v82.379h-61.633c1.16e-4 -45.987 16.676-85.783 40.34-106zm267.5 0c23.664 20.217 40.34 60.013 40.34 106h-61.635v-82.379l10.889-4.6719-10.889-3.6602v-1.5644c5.2907-2.2177 10.204-5.2035 14.547-8.541zm-232.38 29.396c2.4604 0.92489 4.9039 1.736 7.373 2.3613l-7.373 4.75zm197.26 0v7.1113l-7.375-4.75c2.4698-0.62547 4.9138-1.4361 7.375-2.3613zm-197.26 10.281 9.3301 2.3516c7.1736 1.8078 13.983 3.4795 20.826 3.8223l-9.8027 9.0645 13.738 0.64648c8.0753 0.37915 15.281 0.86621 22.271-0.11133l-7.2422 9.0254h12.008c10.517 0 18.567-1.3772 25.264-5.1875 0.30334-0.1727 0.55215-0.40656 0.84766-0.58789-0.14356 12.196 6.3828 22.605 6.3828 22.605l5.0078 8.7949 5.0059-8.8008s6.5259-10.407 6.3809-22.604c0.29631 0.1818 0.5473 0.41863 0.85156 0.59179 6.6965 3.8112 14.744 5.1875 25.262 5.1875h12.01l-7.2402-9.0254c6.9904 0.9765 14.194 0.48944 22.27 0.11133l13.736-0.64648-9.7988-9.0645c6.8428-0.34274 13.651-2.0144 20.824-3.8223l9.3301-2.3516v66.322h-197.26z" fill="#402921" fill-rule="evenodd" stroke-width="44.134"/><path d="m323 372.36c-8.3359 19.065-7.4584 21.727-5.7333 37.625l-13.807 7.1802c8.564-9.3589 12.164-21.66 6.9891-33.89-10.489 18.167-11.134 16.857-12.164 35.91l-16.179 4.7681c10.088-7.6445 12.979-11.271 14.358-33.453-9.095 10.157-16.555 20.827-19.887 34.207 0 0-10.537 1.259-15.803 1.5841 13.716-6.1978 16.496-17.224 19.491-28.399-9.6362 5.5636-18.582 15.787-23.044 25.452 0.28099-4.1879 0.91302-8.1104 1.7191-10.614 3.0616-9.5083-2.9454-21.001-2.9454-21.001s-6.0091 11.492-2.9477 21.001c0.80576 2.5024 1.4378 6.4236 1.7191 10.609-4.4632-9.6625-13.407-19.885-23.042-25.447 2.9944 11.175 5.7746 22.201 19.491 28.399-5.2658-0.32511-15.803-1.5841-15.803-1.5841-3.3319-13.38-10.792-24.05-19.887-34.207 1.3792 22.182 4.2705 25.809 14.358 33.453l-16.179-4.7681c-1.0302-19.053-1.6756-17.743-12.164-35.91-5.1754 12.23-1.575 24.531 6.989 33.89l-13.807-7.1802c1.725-15.898 2.6022-18.558-5.7334-37.623-0.33468 0.13053-0.67235 0.25853-1.0103 0.38479-5.6232 14.608-4.9251 20.367 0.68849 34.007l-11.829-9.273c2.3692-7.003 4.0181-13.967 3.3864-22.294-3.3854 0.87788-6.8978 1.5568-10.519 2.0273-0.66244 5.6309 0.26775 11.342 3.6159 17.142l-11.284-12.178c0.8568-1.4841 1.6152-2.9572 2.2817-4.4238-2.2815 0.16199-4.6022 0.24517-6.9552 0.24528-7.6284 2.3e-4 -15.059 1.9012-22.097 5.4318 6.7064 2.8961 14.289 3.5 24.79 0.6863l11.809 12.428c-6.0453-3.6474-18.603-10.793-39.364-3.7509 12.261 9.4218 29.417 15.696 43.671 7.3152l12.637 9.6487c-6.4639-2.25-22.33-3.925-40.023 2.0229 17.098 7.3329 29.092 12.727 44.323 0.43653l14.813 7.5605s-20.024-3.9053-39.821 8.843c17.883 4.5066 31.63 7.6727 45.082-6.9281 12.946 3.6961 14.862 4.3158 14.862 4.3158-7.6066 1.0475-25.772 6.2193-36.32 15.976 19.434 0.91233 31.925 2.3773 43.529-14.763 0 0 11.887 1.6932 15.225 1.9373-13.227 5.8763-22.213 9.556-31.986 21.734 20.032 0 27.619-5.2248 36.351-19.777-0.19436 3.6189-0.7522 6.8803-1.7978 8.9713-7.0794 12.926 2.9477 30.546 2.9477 30.546s10.025-17.62 2.9454-30.546c-1.0459-2.0918-1.6037-5.3553-1.7978-8.9758 8.7338 14.555 16.319 19.781 36.354 19.781-9.773-12.178-18.759-15.858-31.986-21.734 3.3378-0.24413 15.224-1.9373 15.224-1.9373 11.605 17.141 24.096 15.676 43.529 14.763-10.547-9.7568-28.713-14.929-36.32-15.976 0 0 1.9165-0.61971 14.862-4.3158 13.452 14.601 27.199 11.435 45.082 6.9281-19.797-12.748-39.821-8.843-39.821-8.843l14.813-7.5605c15.231 12.29 27.226 6.8963 44.323-0.43653-17.694-5.948-33.56-4.2729-40.023-2.0229l12.637-9.6487c14.255 8.3808 31.41 2.1066 43.671-7.3152-20.762-7.042-33.319 0.10369-39.364 3.7509l11.809-12.428c10.501 2.8138 18.085 2.2099 24.792-0.6863-7.0382-3.5309-14.47-5.4316-22.099-5.4318-2.3536-1.1e-4 -4.6733-0.083-6.9552-0.24528 0.66648 1.4666 1.4246 2.9392 2.2817 4.4238l-11.284 12.178c3.3482-5.7994 4.2763-11.511 3.6137-17.142-3.6218-0.47074-7.134-1.1492-10.52-2.0273-0.63169 8.3283 1.0194 15.291 3.3887 22.294l-11.829 9.273c5.6138-13.64 6.31-19.4 0.68629-34.009-0.33756-0.12604-0.67362-0.25426-1.0081-0.38468z" fill="#8fcb4d"/><path d="m202.32 225.32c-2.862 0-5.1819 2.3201-5.182 5.1821 0 2.862 2.3201 5.1821 5.182 5.1821 7.1825 0 7.6734 4.0638 18.937 4.0638 7.598 0 13.57-2.9433 15.825-4.2348 0 0 0.0115-8e-3 0.0138-0.0115 2.4786-1.431 3.3279-4.6004 1.8969-7.079-1.431-2.4787-4.6002-3.3279-7.079-1.8969-3.2401 1.8705-6.9155 2.8554-10.657 2.8554-8.5587 0-8.5844-4.0615-18.937-4.0615zm107.36 0c-10.353 0-10.379 4.0615-18.937 4.0615-3.7413 0-7.4166-0.98492-10.657-2.8554-2.4787-1.431-5.648-0.58183-7.079 1.8969-1.431 2.4786-0.58168 5.648 1.8969 7.079v2e-3c0 3e-3 0.0115 9e-3 0.0115 9e-3 2.2554 1.2915 8.2273 4.2348 15.825 4.2348 11.264 0 11.755-4.0638 18.937-4.0638 2.862 0 5.1822-2.3201 5.1822-5.1821-1.1e-4 -2.862-2.3202-5.1821-5.1822-5.1821zm-81.411 47.505a5.1248 5.1248 0 0 0-3.625 1.5008 5.1248 5.1248 0 0 0 0 7.2477 5.1248 5.1248 0 0 0 0.0184 0.018c8.315 8.3056 19.585 12.971 31.338 12.974 11.753-3e-3 23.023-4.6688 31.338-12.974a5.1248 5.1248 0 0 0 0.0184-0.018 5.1248 5.1248 0 0 0 0-7.2477 5.1248 5.1248 0 0 0-3.625-1.5008 5.1248 5.1248 0 0 0-3.6205 1.5008c-6.3944 6.3941-15.066 9.9872-24.108 9.9907-9.0426-3e-3 -17.714-3.5966-24.108-9.9907a5.1248 5.1248 0 0 0-3.6205-1.5008z" fill="#402921" fill-rule="evenodd"/></svg>
