<?xml version="1.0" encoding="UTF-8"?>
<!-- Created with Inkscape (http://www.inkscape.org/) -->
<svg width="512" height="512" version="1.1" viewBox="0 0 512 512" xml:space="preserve" xmlns="http://www.w3.org/2000/svg"><path d="m256 46.803c-65.272 0-118.18 52.913-118.18 118.19 0 26.451-21.914 45.629-45.881 59.467-19.106 10.315-31.02 30.277-31.02 51.99-0.064 27.305 3.8926 73.185-5.3183 89.139-3.4023 5.6092-7.0113 9.7993-11.051 14.971-8.3286 10.662-10.754 17.222-10.754 25.551 7e-4 32.636 26.458 59.092 59.094 59.092h326.23c32.636 4e-4 59.093-26.456 59.094-59.092 0-8.3289-2.4253-14.889-10.754-25.551-4.0395-5.1714-7.6485-9.3615-11.051-14.971-9.2109-15.954-5.2545-61.834-5.3183-89.139 0-21.713-11.912-41.675-31.018-51.99-23.967-13.838-45.881-33.016-45.881-59.467 0-65.272-52.913-118.19-118.19-118.19zm0 12c58.645 0 106.19 47.541 106.19 106.19 0 16.164 6.695 29.877 16.234 41.252-73.674-6.0248-122.04-53.61-122.42-101.48 0 48.424-49.162 95.594-122.44 101.5 9.5487-11.379 16.252-25.098 16.252-41.271 0-58.645 47.539-106.19 106.18-106.19zm-0.019 89.336c14.531 25.326 40.83 45.167 73.002 56.635-0.8552 53.237-33.279 95.796-72.982 95.797-39.708-6.3e-4 -72.133-42.568-72.982-95.811 32.156-11.47 58.438-31.305 72.963-56.621zm-84.867 60.408c1.5735 40.851 19.345 77.44 46.57 95.879-6.1568 18.841-23.874 32.453-44.772 32.453-49.892 0-80.025 54.655-80.025 116.32-26.008-8e-4 -47.091-21.084-47.092-47.092 0-12.114 10.595-20.37 17.465-30.125 16.834-23.392 7.2546-71.364 9.6543-99.535 0-17.302 9.4971-33.209 24.723-41.428 8.7859-5.0725 18.376-11.511 26.91-19.367 16.184-0.52793 31.872-2.9763 46.566-7.1035zm169.77 0.0117c14.696 4.1244 30.384 6.571 46.568 7.0957 8.5339 7.8556 18.123 14.293 26.908 19.365 15.226 8.219 24.718 24.125 24.723 41.428 2.3997 28.171-7.1797 76.143 9.6543 99.535 6.8696 9.7552 17.465 18.009 17.465 30.123-5e-4 26.008-21.084 47.091-47.092 47.092-2e-4 -61.663-30.134-116.32-80.025-116.32-20.897-4.3e-4 -38.615-13.613-44.772-32.453 27.223-18.438 44.994-55.022 46.57-95.869zm-131.48 7.7988c-2.4842 0-4.4979 2.0138-4.498 4.498 0 2.4842 2.0138 4.498 4.498 4.498 6.2344 0 6.6605 3.5273 16.438 3.5273 6.595 0 11.779-2.5548 13.736-3.6758 0 0 0.01-5e-3 0.012-8e-3v-2e-3c2.1515-1.2421 2.8886-3.9931 1.6465-6.1445-1.2421-2.1515-3.993-2.8886-6.1445-1.6465-2.8124 1.6236-6.0026 2.4785-9.25 2.4785-7.4289 0-7.4512-3.5254-16.438-3.5254zm93.188 0c-8.9863 0-9.0086 3.5254-16.438 3.5254-3.2474 0-6.4376-0.85491-9.25-2.4785-2.1515-1.2421-4.9024-0.50502-6.1445 1.6465-1.2421 2.1514-0.5049 4.9024 1.6465 6.1445v8e-3c0 8.1e-4 0 1e-3 0.01 2e-3 1.9577 1.121 7.1413 3.6758 13.736 3.6758 9.777 0 10.203-3.5273 16.438-3.5273 2.4842 0 4.4981-2.0138 4.4981-4.498-1e-4 -2.4842-2.0139-4.498-4.4981-4.498zm-70.664 41.234a4.4483 4.4483 0 0 0-3.1465 1.3027 4.4483 4.4483 0 0 0 0 6.291 4.4483 4.4483 0 0 0 0.018 0.0156c7.2174 7.2092 17 11.259 27.201 11.262 10.201-3e-3 19.984-4.0525 27.201-11.262a4.4483 4.4483 0 0 0 0.016-0.0156 4.4483 4.4483 0 0 0 0-6.291 4.4483 4.4483 0 0 0-3.1464-1.3027 4.4483 4.4483 0 0 0-3.1426 1.3027c-5.5503 5.55-13.077 8.6689-20.926 8.6719-7.8489-3e-3 -15.376-3.1218-20.926-8.6719a4.4483 4.4483 0 0 0-3.1426-1.3027zm50.377 53.479c3.4319 11.217 10.525 20.367 20.18 26.855-0.947 5.8527-2.9905 11.474-6.0234 16.568l0.5488-8.8242-9.6094 10.73c-1.3019 1.4538-2.5125 2.9807-3.748 4.4883l1.3672-5.1035-10.455 6.0371c-3.8182 2.2045-7.3176 5.1429-10.545 8.3555-0.8305-6.6153-3.5899-11.691-3.5899-11.691l-4.4296-8.4766-4.4317 8.4746s-2.7602 5.0771-3.5918 11.691c-3.2267-3.2118-6.7274-6.1494-10.545-8.3535l-10.453-6.0371 1.3672 5.1035c-1.2356-1.5077-2.4481-3.0344-3.75-4.4883l-9.6094-10.73 0.5488 8.8262c-3.0333-5.0936-5.0776-10.714-6.0254-16.566 9.6561-6.4878 16.751-15.639 20.184-26.857 8.4946 3.7075 17.372 5.5959 26.305 5.5957 8.9338-1.8e-4 17.812-1.8893 26.307-5.5977zm31.854 32.918c0.2903 0.1132 0.582 0.22459 0.875 0.33399 4.8814 12.681 4.2771 17.68-0.5957 29.52l10.268-8.0488c-2.0566-6.079-3.4897-12.123-2.9414-19.352 2.9386 0.7622 5.9872 1.3512 9.1309 1.7598 0.5751 4.8877-0.2305 9.845-3.1367 14.879l9.7949-10.57c-0.744-1.2886-1.402-2.5668-1.9805-3.8398 1.9807 0.1409 3.9942 0.21279 6.0371 0.21289 6.6216 2e-4 13.073 1.65 19.182 4.7148-5.8215 2.5139-12.404 3.0381-21.52 0.5957l-10.25 10.787c5.2472-3.1658 16.147-9.3683 34.168-3.2559-10.642 8.1781-25.533 13.624-37.906 6.3496l-10.969 8.375c5.6106-1.953 19.382-3.4069 34.74 1.7559-14.841 6.3649-25.252 11.047-38.473 0.3789l-12.857 6.5625s17.381-3.3897 34.564 7.6758c-15.522 3.9117-27.455 6.6598-39.131-6.0137-11.237 3.2082-12.9 3.7461-12.9 3.7461 6.6024 0.9092 22.37 5.3983 31.525 13.867-16.868 0.7919-27.71 2.0635-37.783-12.814 0 0-10.318 1.4697-13.215 1.6816 11.481 5.1006 19.281 8.2945 27.764 18.865-17.39 0-23.974-4.5363-31.555-17.17 0.1685 3.1426 0.6527 5.9753 1.5605 7.791 6.1449 11.22-2.5566 26.514-2.5566 26.514s-8.7035-15.294-2.5586-26.514c0.9076-1.815 1.3919-4.6459 1.5606-7.7871-7.58 12.631-14.165 17.166-31.553 17.166 8.483-10.571 16.283-13.765 27.764-18.865-2.8972-0.2119-13.215-1.6816-13.215-1.6816-10.073 14.878-20.915 13.606-37.783 12.814 9.1554-8.4689 24.923-12.958 31.525-13.867 0 0-1.6635-0.5379-12.9-3.7461-11.676 12.674-23.609 9.9254-39.131 6.0137 17.183-11.066 34.564-7.6758 34.564-7.6758l-12.857-6.5625c-13.221 10.668-23.632 5.986-38.473-0.3789 15.358-5.1628 29.13-3.7089 34.74-1.7559l-10.969-8.375c-12.373 7.2745-27.264 1.8285-37.906-6.3496 18.021-6.1124 28.921 0.09 34.168 3.2559l-10.25-10.787c-9.1149 2.4423-15.696 1.9181-21.518-0.5957 6.1089-3.0646 12.558-4.7146 19.18-4.7148 2.0424-1e-4 4.0568-0.0723 6.0371-0.21289-0.5785 1.273-1.2368 2.5516-1.9805 3.8398l9.7949 10.57c-2.9062-5.0338-3.7136-9.9913-3.1386-14.879 3.1435-0.4084 6.1923-0.99776 9.1308-1.7598 0.5483 7.2285-0.8829 13.273-2.9394 19.352l10.268 8.0488c-4.8726-11.839-5.4785-16.838-0.5976-29.518 0.2933-0.1096 0.5864-0.22069 0.8769-0.33399 7.2353 16.548 6.4739 18.857 4.9766 32.656l11.984 6.2324c-7.4335-8.1235-10.559-18.801-6.0664-29.416 9.1042 15.769 9.6644 14.632 10.559 31.17l14.043 4.1387c-8.7562-6.6354-11.266-9.7834-12.463-29.037 7.8944 8.8161 14.37 18.077 17.262 29.691 0 0 9.1461 1.0928 13.717 1.375-11.906-5.3797-14.319-14.95-16.918-24.65 8.3627 4.8282 16.126 13.701 20 22.088-0.2442-3.6333-0.7928-7.0369-1.4922-9.209-2.6573-8.2532 2.5586-18.229 2.5586-18.229s5.2141 9.9753 2.5566 18.229c-0.6997 2.1731-1.2482 5.5778-1.4921 9.2129 3.8732-8.3885 11.638-17.263 20.002-22.092-2.5991 9.7001-5.0122 19.271-16.918 24.65 4.5707-0.2822 13.717-1.375 13.717-1.375 2.8921-11.614 9.3674-20.875 17.262-29.691-1.1971 19.254-3.7069 22.402-12.463 29.037l14.043-4.1387c0.8942-16.538 1.4544-15.401 10.559-31.17 4.4921 10.615 1.3671 21.293-6.0664 29.416l11.984-6.2324c-1.4974-13.8-2.2589-16.11 4.9766-32.658zm-174.25 17.201 5.8555 4.5c3.7704 2.8974 8.0338 5.489 12.627 7.4141v1.3574l-9.4512 3.1777 9.4512 4.0547v71.504h-53.498c1e-4 -39.916 14.476-74.459 35.016-92.008zm232.19 0c20.54 17.548 35.014 52.091 35.014 92.008h-53.498v-71.504l9.4512-4.0547-9.4512-3.1777v-1.3574c4.5923-1.925 8.8572-4.5171 12.627-7.4141zm-201.71 25.518c2.1356 0.8028 4.2572 1.506 6.4004 2.0488l-6.4004 4.123zm171.22 0v6.1719l-6.4004-4.123c2.1438-0.5429 4.2641-1.2457 6.4004-2.0488zm-171.22 8.9238 8.0996 2.041c6.2267 1.5692 12.137 3.0189 18.076 3.3164l-8.5079 7.8691 11.924 0.5606c7.0093 0.3291 13.264 0.7508 19.332-0.098l-6.2871 7.834h10.424c9.1288 0 16.116-1.1966 21.928-4.5039 0.2633-0.1499 0.4798-0.3524 0.7363-0.5098-0.1246 10.586 5.541 19.621 5.541 19.621l4.3457 7.6348 4.3457-7.6387s5.665-9.0344 5.5391-19.621c0.2572 0.1578 0.4741 0.3634 0.7382 0.5137 5.8125 3.3081 12.798 4.5039 21.928 4.5039h10.424l-6.2851-7.834c6.0676 0.8476 12.321 0.4259 19.33 0.098l11.924-0.5606-8.5059-7.8691c5.9395-0.2975 11.85-1.7472 18.076-3.3164l8.0976-2.041v57.566h-171.22z" fill-rule="evenodd" stroke-width=".89626"/></svg>
